<?xml version="1.0" encoding="UTF-8" standalone="no"?>
<!-- Created with Inkscape (http://www.inkscape.org/) -->
<svg
   xmlns:dc="http://purl.org/dc/elements/1.1/"
   xmlns:cc="http://web.resource.org/cc/"
   xmlns:rdf="http://www.w3.org/1999/02/22-rdf-syntax-ns#"
   xmlns:svg="http://www.w3.org/2000/svg"
   xmlns="http://www.w3.org/2000/svg"
   xmlns:xlink="http://www.w3.org/1999/xlink"
   xmlns:sodipodi="http://sodipodi.sourceforge.net/DTD/sodipodi-0.dtd"
   xmlns:inkscape="http://www.inkscape.org/namespaces/inkscape"
   width="792pt"
   height="612pt"
   id="svg2160"
   sodipodi:version="0.32"
   inkscape:version="0.45.1"
   sodipodi:docbase="C:\Server\htdocs\_SCRIPTS\FanUpdate"
   sodipodi:docname="fanupdate.svg"
   inkscape:output_extension="org.inkscape.output.svg.inkscape"
   inkscape:export-filename="C:\Server\htdocs\_SCRIPTS\FanUpdate\fanupdate.png"
   inkscape:export-xdpi="90"
   inkscape:export-ydpi="90">
  <defs
     id="defs2162">
    <marker
       style="overflow:visible"
       inkscape:stockid="InfiniteLineStart"
       id="InfiniteLineStart"
       refX="0"
       refY="0"
       orient="auto">
      <g
         id="g10224"
         transform="translate(-13,0)">
        <circle
           id="circle10226"
           r="0.8"
           cy="0"
           cx="3" />
        <circle
           id="circle10228"
           r="0.8"
           cy="0"
           cx="6.5" />
        <circle
           id="circle10230"
           r="0.8"
           cy="0"
           cx="10" />
      </g>
    </marker>
    <marker
       inkscape:stockid="Arrow1Lend"
       orient="auto"
       refY="0.0"
       refX="0.0"
       id="Arrow1Lend"
       style="overflow:visible;">
      <path
         id="path10409"
         d="M 0.0,0.0 L 5.0,-5.0 L -12.5,0.0 L 5.0,5.0 L 0.0,0.0 z "
         style="fill-rule:evenodd;stroke:#000000;stroke-width:1.0pt;marker-start:none;"
         transform="scale(0.8) rotate(180) translate(12.5,0)" />
    </marker>
    <marker
       inkscape:stockid="Arrow1Mend"
       orient="auto"
       refY="0.0"
       refX="0.0"
       id="Arrow1Mend"
       style="overflow:visible;">
      <path
         id="path10403"
         d="M 0.0,0.0 L 5.0,-5.0 L -12.5,0.0 L 5.0,5.0 L 0.0,0.0 z "
         style="fill-rule:evenodd;stroke:#000000;stroke-width:1.0pt;marker-start:none;"
         transform="scale(0.4) rotate(180) translate(10,0)" />
    </marker>
    <marker
       inkscape:stockid="Tail"
       orient="auto"
       refY="0.0"
       refX="0.0"
       id="Tail"
       style="overflow:visible">
      <g
         id="g10364"
         transform="scale(-1.2)">
        <path
           id="path10366"
           d="M -3.8048674,-3.9585227 L 0.54352094,0"
           style="fill:none;fill-rule:evenodd;stroke:#000000;stroke-width:0.8;marker-start:none;marker-end:none;stroke-linecap:round" />
        <path
           id="path10368"
           d="M -1.2866832,-3.9585227 L 3.0617053,0"
           style="fill:none;fill-rule:evenodd;stroke:#000000;stroke-width:0.8;marker-start:none;marker-end:none;stroke-linecap:round" />
        <path
           id="path10370"
           d="M 1.3053582,-3.9585227 L 5.6537466,0"
           style="fill:none;fill-rule:evenodd;stroke:#000000;stroke-width:0.8;marker-start:none;marker-end:none;stroke-linecap:round" />
        <path
           id="path10372"
           d="M -3.8048674,4.1775838 L 0.54352094,0.21974226"
           style="fill:none;fill-rule:evenodd;stroke:#000000;stroke-width:0.8;marker-start:none;marker-end:none;stroke-linecap:round" />
        <path
           id="path10374"
           d="M -1.2866832,4.1775838 L 3.0617053,0.21974226"
           style="fill:none;fill-rule:evenodd;stroke:#000000;stroke-width:0.8;marker-start:none;marker-end:none;stroke-linecap:round" />
        <path
           id="path10376"
           d="M 1.3053582,4.1775838 L 5.6537466,0.21974226"
           style="fill:none;fill-rule:evenodd;stroke:#000000;stroke-width:0.8;marker-start:none;marker-end:none;stroke-linecap:round" />
      </g>
    </marker>
    <marker
       inkscape:stockid="TriangleInL"
       orient="auto"
       refY="0.0"
       refX="0.0"
       id="TriangleInL"
       style="overflow:visible">
      <path
         id="path10323"
         d="M 5.77,0.0 L -2.88,5.0 L -2.88,-5.0 L 5.77,0.0 z "
         style="fill-rule:evenodd;stroke:#000000;stroke-width:1.0pt;marker-start:none"
         transform="scale(-0.8)" />
    </marker>
    <marker
       inkscape:stockid="TriangleOutL"
       orient="auto"
       refY="0.0"
       refX="0.0"
       id="TriangleOutL"
       style="overflow:visible">
      <path
         id="path10314"
         d="M 5.77,0.0 L -2.88,5.0 L -2.88,-5.0 L 5.77,0.0 z "
         style="fill-rule:evenodd;stroke:#000000;stroke-width:1.0pt;marker-start:none"
         transform="scale(0.8)" />
    </marker>
    <marker
       inkscape:stockid="Dot_l"
       orient="auto"
       refY="0.0"
       refX="0.0"
       id="Dot_l"
       style="overflow:visible">
      <path
         id="path10350"
         d="M -2.5,-1.0 C -2.5,1.7600000 -4.7400000,4.0 -7.5,4.0 C -10.260000,4.0 -12.5,1.7600000 -12.5,-1.0 C -12.5,-3.7600000 -10.260000,-6.0 -7.5,-6.0 C -4.7400000,-6.0 -2.5,-3.7600000 -2.5,-1.0 z "
         style="fill-rule:evenodd;stroke:#000000;stroke-width:1.0pt;marker-start:none;marker-end:none"
         transform="scale(0.8) translate(7.4, 1)" />
    </marker>
    <marker
       inkscape:stockid="Arrow2Lend"
       orient="auto"
       refY="0.0"
       refX="0.0"
       id="Arrow2Lend"
       style="overflow:visible;">
      <path
         id="path10391"
         style="font-size:12.0;fill-rule:evenodd;stroke-width:0.62500000;stroke-linejoin:round;"
         d="M 8.7185878,4.0337352 L -2.2072895,0.016013256 L 8.7185884,-4.0017078 C 6.9730900,-1.6296469 6.9831476,1.6157441 8.7185878,4.0337352 z "
         transform="scale(1.1) rotate(180) translate(1,0)" />
    </marker>
    <linearGradient
       inkscape:collect="always"
       id="linearGradient7303">
      <stop
         style="stop-color:#33333f;stop-opacity:1;"
         offset="0"
         id="stop7305" />
      <stop
         style="stop-color:#33333f;stop-opacity:0;"
         offset="1"
         id="stop7307" />
    </linearGradient>
    <linearGradient
       inkscape:collect="always"
       id="linearGradient4377">
      <stop
         style="stop-color:#ffffff;stop-opacity:1;"
         offset="0"
         id="stop4379" />
      <stop
         style="stop-color:#ffffff;stop-opacity:0;"
         offset="1"
         id="stop4381" />
    </linearGradient>
    <linearGradient
       inkscape:collect="always"
       xlink:href="#linearGradient4377"
       id="linearGradient4383"
       x1="439.08286"
       y1="262.54437"
       x2="460.20709"
       y2="431.53845"
       gradientUnits="userSpaceOnUse"
       gradientTransform="translate(-54.319526,34.974773)" />
    <linearGradient
       inkscape:collect="always"
       xlink:href="#linearGradient7303"
       id="linearGradient7309"
       x1="406.18912"
       y1="950.60846"
       x2="407.39804"
       y2="885.58624"
       gradientUnits="userSpaceOnUse" />
    <linearGradient
       inkscape:collect="always"
       xlink:href="#linearGradient4377"
       id="linearGradient20210"
       x1="801.21301"
       y1="414.94083"
       x2="802.72186"
       y2="498.46957"
       gradientUnits="userSpaceOnUse" />
    <filter
       inkscape:collect="always"
       x="-0.0098657339"
       width="1.0197315"
       y="-0.12799181"
       height="1.2559836"
       id="filter4188">
      <feGaussianBlur
         inkscape:collect="always"
         stdDeviation="4.2814662"
         id="feGaussianBlur4190" />
    </filter>
  </defs>
  <sodipodi:namedview
     inkscape:document-units="in"
     pagecolor="#ffffff"
     bordercolor="#666666"
     borderopacity="1.0"
     inkscape:pageopacity="0.0"
     inkscape:pageshadow="2"
     inkscape:zoom="1.1125293"
     inkscape:cx="507.21876"
     inkscape:cy="330.3334"
     inkscape:current-layer="layer4"
     id="namedview2164"
     showgrid="true"
     inkscape:window-width="1024"
     inkscape:window-height="708"
     inkscape:window-x="-4"
     inkscape:window-y="-4" />
  <metadata
     id="metadata2166">
    <rdf:RDF>
      <cc:Work
         rdf:about="">
        <dc:format>image/svg+xml</dc:format>
        <dc:type
           rdf:resource="http://purl.org/dc/dcmitype/StillImage" />
      </cc:Work>
    </rdf:RDF>
  </metadata>
  <g
     inkscape:groupmode="layer"
     id="layer4"
     inkscape:label="TextShadow"
     style="display:none"
     sodipodi:insensitive="true">
    <text
       sodipodi:linespacing="100%"
       id="text5355"
       y="936.3465"
       x="330.61282"
       style="font-size:89.68095398px;font-style:normal;font-variant:normal;font-weight:normal;font-stretch:normal;text-align:start;line-height:100%;writing-mode:lr-tb;text-anchor:start;opacity:1;fill:url(#linearGradient7309);fill-opacity:1;stroke:none;stroke-width:1px;stroke-linecap:butt;stroke-linejoin:miter;stroke-opacity:1;filter:url(#filter4188);font-family:Blue Highway"
       xml:space="preserve"
       transform="matrix(2.2301278,0,-0.8397627,0.4028141,137.08452,82.399346)"><tspan
         y="936.3465"
         x="330.61282"
         id="tspan5357"
         sodipodi:role="line"
         style="fill:url(#linearGradient7309);fill-opacity:1">FanUpdate</tspan></text>
  </g>
  <g
     inkscape:groupmode="layer"
     id="layer5"
     inkscape:label="Arrow"
     style="display:inline"
     sodipodi:insensitive="true">
    <path
       style="opacity:1;fill:#00cc00;fill-opacity:1;stroke:#00c00f;stroke-width:5.8499999;stroke-linecap:round;stroke-linejoin:round;stroke-miterlimit:4;stroke-dasharray:none;stroke-opacity:0.94117647"
       d="M 805.15625,425.125 C 803.0049,425.1581 801.36483,425.45999 800.3125,426.0625 C 794.49499,429.3933 810.22112,436.56668 814.53125,462.21875 L 102.375,462.21875 C 94.983273,462.21875 89.03125,468.17077 89.03125,475.5625 L 89.03125,476.03125 C 89.03125,483.42298 94.983272,489.375 102.375,489.375 L 814.4375,489.375 C 810.00482,514.98132 794.52257,522.12924 800.3125,525.5 C 813.72628,533.30912 925.35022,491.30247 925.40625,475.78125 C 925.45789,461.47263 830.54221,424.73445 805.15625,425.125 z "
       id="rect19225" />
  </g>
  <g
     inkscape:groupmode="layer"
     id="layer6"
     inkscape:label="ArrowHighlight"
     style="display:inline"
     sodipodi:insensitive="true">
    <path
       id="path19232"
       d="M 805.15625,425.125 C 803.0049,425.1581 801.36483,425.45999 800.3125,426.0625 C 794.49499,429.3933 810.22112,436.56668 814.53125,462.21875 L 102.375,462.21875 C 94.983273,462.21875 89.03125,468.17077 89.03125,475.5625 L 89.03125,476.03125 C 89.03125,483.42298 94.983272,489.375 102.375,489.375 L 814.4375,489.375 C 810.00482,514.98132 794.52257,522.12924 800.3125,525.5 C 813.72628,533.30912 925.35022,491.30247 925.40625,475.78125 C 925.45789,461.47263 830.54221,424.73445 805.15625,425.125 z "
       style="opacity:0.85;fill:url(#linearGradient20210);fill-opacity:1;stroke:none;stroke-width:5.8499999;stroke-linecap:round;stroke-linejoin:round;stroke-miterlimit:4;stroke-dasharray:none;stroke-opacity:0.94117647;display:inline" />
  </g>
  <g
     inkscape:groupmode="layer"
     id="layer2"
     inkscape:label="Text"
     style="display:inline"
     sodipodi:insensitive="true">
    <text
       xml:space="preserve"
       style="font-size:200px;font-style:normal;font-variant:normal;font-weight:normal;font-stretch:normal;text-align:start;line-height:100%;writing-mode:lr-tb;text-anchor:start;fill:#33333f;fill-opacity:0.94117647;stroke:#333333;stroke-width:5.8499999;stroke-linecap:round;stroke-linejoin:round;stroke-miterlimit:4;stroke-dasharray:none;stroke-opacity:1;font-family:Blue Highway"
       x="88.620537"
       y="456.07648"
       id="text2170"
       sodipodi:linespacing="100%"><tspan
         sodipodi:role="line"
         id="tspan2172"
         x="88.620537"
         y="456.07648">FanUpdate</tspan></text>
  </g>
  <g
     inkscape:groupmode="layer"
     id="layer3"
     inkscape:label="TextHighlight"
     style="display:inline"
     sodipodi:insensitive="true">
    <path
       style="font-size:200px;font-style:normal;font-variant:normal;font-weight:normal;font-stretch:normal;text-align:start;line-height:100%;writing-mode:lr-tb;text-anchor:start;opacity:0.76999996;fill:url(#linearGradient4383);fill-opacity:1;stroke:none;stroke-width:1px;stroke-linecap:butt;stroke-linejoin:miter;stroke-opacity:1;font-family:Blue Highway"
       d="M 566.27422,342.88102 L 549.89922,350.06852 L 549.89922,378.06852 C 547.76701,375.00464 545.09944,372.92057 541.89922,371.78727 C 538.69889,370.65413 534.94475,370.06861 530.68047,370.06852 C 526.01328,370.06861 521.76679,371.23502 517.89922,373.56852 C 514.03161,375.90217 510.64083,379.09741 507.77422,383.16227 C 504.9076,387.22728 502.68583,392.03473 501.08672,397.56852 C 500.94344,398.06436 500.81092,398.5668 500.68047,399.06852 C 506.11795,399.61561 511.55339,400.20837 516.99297,400.81852 C 517.633,398.79467 518.43459,397.00011 519.39922,395.47477 C 522.26581,390.94196 527.09987,388.66234 533.89922,388.66227 C 538.03329,388.66234 541.53255,390.16145 544.39922,393.16227 C 547.26578,396.16323 549.10164,399.27658 549.89922,402.47477 L 549.89922,404.88102 C 555.35409,405.61582 560.81737,406.39932 566.27422,407.19352 L 566.27422,342.88102 z M 98.024224,345.28727 L 98.024224,427.16227 C 103.49202,425.70282 108.95938,424.27306 114.43047,422.91227 L 114.43047,407.47477 L 141.80547,407.47477 L 141.80547,391.06852 L 114.43047,391.06852 L 114.43047,361.69352 L 157.02422,361.69352 L 157.02422,345.28727 L 98.024224,345.28727 z M 329.05547,345.28727 L 329.05547,393.16227 C 334.51993,392.96364 339.99465,392.81396 345.46172,392.69352 L 345.46172,345.28727 L 329.05547,345.28727 z M 388.05547,345.28727 L 388.05547,392.50602 C 393.57903,392.58309 399.12317,392.69797 404.64922,392.84977 L 404.64922,345.28727 L 388.05547,345.28727 z M 684.86797,346.06852 L 668.46172,355.28727 L 668.46172,370.66227 L 659.46172,370.66227 L 659.46172,387.06852 L 668.46172,387.06852 L 668.46172,425.31852 C 673.98461,426.465 679.49963,427.65233 685.02422,428.84977 C 684.92766,427.31866 684.86795,425.62854 684.86797,423.69352 L 684.86797,387.06852 L 700.24297,387.06852 L 700.24297,370.66227 L 684.86797,370.66227 L 684.86797,346.06852 z M 749.74297,368.28727 C 744.27825,368.28736 739.33107,369.3427 734.93047,371.47477 C 730.52981,373.60702 726.80896,376.66048 723.74297,380.66227 C 720.67696,384.66422 718.34412,389.52749 716.74297,395.19352 C 715.14181,400.85967 714.33671,407.13498 714.33672,414.06852 C 714.33671,422.69568 715.48512,430.0971 717.77422,436.22477 C 735.38464,440.34764 752.99216,444.70265 770.61797,449.28727 C 771.92426,448.04713 773.16408,446.63002 774.33672,445.06852 L 763.33672,434.88102 C 761.73755,436.87893 759.84847,438.26898 757.64922,439.06852 C 755.44987,439.8681 752.86419,440.28729 749.93047,440.28727 C 747.664,440.28729 745.44223,439.8681 743.24297,439.06852 C 741.04363,438.26898 739.04348,437.12917 737.24297,435.66227 C 735.44241,434.19542 733.96991,432.41946 732.83672,430.28727 C 731.70347,428.15514 731.14919,425.73782 731.14922,423.06852 L 731.14922,422.69352 L 782.93047,422.69352 C 782.9304,420.96015 782.99029,419.23482 783.05547,417.56852 C 783.1205,415.9023 783.14914,414.26551 783.14922,412.66227 C 783.28342,398.1319 780.28115,387.10236 774.14922,379.56852 C 768.01717,372.03483 759.87882,368.28736 749.74297,368.28727 z M 457.83672,369.47477 C 454.10133,369.47486 450.63071,370.41967 447.43047,372.28727 C 444.23016,374.15502 441.56261,376.82056 439.43047,380.28727 L 439.43047,370.66227 L 423.02422,370.66227 L 423.02422,393.50602 C 429.32449,393.77156 435.62709,394.08481 441.93047,394.44352 C 442.75448,393.22735 443.72207,392.09102 444.83672,391.06852 C 446.4358,389.60171 448.15651,388.40868 450.02422,387.47477 C 451.89186,386.541 453.69703,386.06859 455.43047,386.06852 C 458.89315,386.06859 461.78434,386.70734 464.11797,387.97477 C 466.45149,389.24233 468.33854,391.0209 469.80547,393.28727 C 470.43637,394.26212 470.99114,395.30835 471.46172,396.44352 C 477.08086,396.889 482.684,397.39689 488.30547,397.91227 C 488.07181,396.63398 487.83321,395.38096 487.52422,394.16227 C 486.25665,389.16356 484.30971,384.83056 481.71172,381.16227 C 479.11359,377.49414 475.80728,374.63566 471.80547,372.56852 C 467.80354,370.50155 463.16708,369.47486 457.83672,369.47477 z M 199.49297,369.88102 C 194.5613,369.88111 190.08653,370.68823 186.08672,372.28727 C 182.08687,373.88647 178.75598,376.13484 176.08672,379.06852 L 183.49297,391.69352 C 185.22634,390.22467 187.1999,388.97378 189.39922,387.97477 C 191.59849,386.9759 194.20615,386.47484 197.27422,386.47477 C 199.8051,386.47484 202.11337,386.69644 204.18047,387.16227 C 206.24748,387.62824 207.93953,388.46198 209.27422,389.66227 C 210.6088,390.86269 211.66675,392.58803 212.39922,394.78727 C 213.13159,396.98662 213.49291,399.87375 213.49297,403.47477 C 211.22648,400.93983 208.69865,399.301 205.89922,398.56852 C 203.0997,397.83616 200.1015,397.47483 196.89922,397.47477 C 187.96772,397.47483 180.7143,400.00266 175.18047,405.06852 C 173.40699,406.69205 171.91684,408.54153 170.71172,410.63102 C 190.48897,406.90333 210.27006,403.77027 230.08672,401.22477 L 230.08672,400.88102 C 230.08665,391.28229 227.2814,383.6962 221.68047,378.16227 C 216.07942,372.6285 208.69296,369.88111 199.49297,369.88102 z M 286.21172,369.88102 C 281.28004,369.88111 276.97161,370.79671 273.30547,372.66227 C 269.63926,374.52799 266.80739,377.41772 264.80547,381.28727 L 264.80547,370.66227 L 248.39922,370.66227 L 248.39922,399.03727 C 254.07502,398.40909 259.7516,397.82359 265.43047,397.28727 C 266.13699,394.45543 267.44287,392.1603 269.30547,390.38102 C 272.30633,387.51447 276.08506,386.06859 280.61797,386.06852 C 285.1508,386.06859 288.67871,387.51447 291.21172,390.38102 C 292.33528,391.65264 293.18029,393.19678 293.80547,395.00602 C 299.55333,394.61496 305.30462,394.24474 311.05547,393.94352 C 310.25195,387.48233 308.08669,382.15658 304.52422,377.97477 C 299.92414,372.57528 293.81258,369.88111 286.21172,369.88102 z M 614.33672,369.88102 C 609.40505,369.88111 604.93028,370.68823 600.93047,372.28727 C 596.93062,373.88647 593.59973,376.13484 590.93047,379.06852 L 598.33672,391.69352 C 600.07009,390.22467 602.04365,388.97378 604.24297,387.97477 C 606.44224,386.9759 609.0499,386.47484 612.11797,386.47477 C 614.64885,386.47484 616.95712,386.69644 619.02422,387.16227 C 621.09123,387.62824 622.78328,388.46198 624.11797,389.66227 C 625.45255,390.86269 626.5105,392.58803 627.24297,394.78727 C 627.97534,396.98662 628.33666,399.87375 628.33672,403.47477 C 626.07023,400.93983 623.5424,399.301 620.74297,398.56852 C 617.94345,397.83616 614.94525,397.47483 611.74297,397.47477 C 602.81147,397.47483 595.55805,400.00266 590.02422,405.06852 C 588.38871,406.56574 587.02011,408.26877 585.86797,410.16227 C 592.92648,411.27882 599.99382,412.45153 607.05547,413.66227 C 609.36229,412.89616 612.11261,412.47478 615.33672,412.47477 C 616.67131,412.47482 618.0573,412.6698 619.52422,413.06852 C 620.99105,413.46732 622.41032,414.05285 623.74297,414.78727 C 624.97193,415.46466 625.97271,416.25998 626.80547,417.16227 C 632.84335,418.26998 638.89043,419.42708 644.93047,420.59977 L 644.93047,400.88102 C 644.9304,391.28229 642.12515,383.6962 636.52422,378.16227 C 630.92317,372.6285 623.53671,369.88111 614.33672,369.88102 z M 749.52422,384.47477 C 754.45989,384.47484 758.48942,386.58812 761.55547,390.78727 C 764.62141,394.98655 766.28686,400.15126 766.55547,406.28727 L 731.14922,406.28727 C 731.41368,400.15126 733.22089,394.98655 736.55547,390.78727 C 739.88999,386.58812 744.19378,384.47484 749.52422,384.47477 z "
       id="text2305" />
  </g>
</svg>
